<svg id="visual" viewBox="0 0 900 600" width="900" height="600" xmlns="http://www.w3.org/2000/svg" xmlns:xlink="http://www.w3.org/1999/xlink" version="1.1"><rect x="0" y="0" width="900" height="600" fill="#001220"></rect><path d="M0 236L21.5 223.3C43 210.7 86 185.3 128.8 174.5C171.7 163.7 214.3 167.3 257.2 182.8C300 198.3 343 225.7 385.8 227.8C428.7 230 471.3 207 514.2 197.2C557 187.3 600 190.7 642.8 193.5C685.7 196.3 728.3 198.7 771.2 212.2C814 225.7 857 250.3 878.5 262.7L900 275L900 601L878.5 601C857 601 814 601 771.2 601C728.3 601 685.7 601 642.8 601C600 601 557 601 514.2 601C471.3 601 428.7 601 385.8 601C343 601 300 601 257.2 601C214.3 601 171.7 601 128.8 601C86 601 43 601 21.5 601L0 601Z" fill="#0066ff"></path><path d="M0 268L21.5 278C43 288 86 308 128.8 317.8C171.7 327.7 214.3 327.3 257.2 329.5C300 331.7 343 336.3 385.8 328.8C428.7 321.3 471.3 301.7 514.2 289.2C557 276.7 600 271.3 642.8 286.8C685.7 302.3 728.3 338.7 771.2 339.7C814 340.7 857 306.3 878.5 289.2L900 272L900 601L878.5 601C857 601 814 601 771.2 601C728.3 601 685.7 601 642.8 601C600 601 557 601 514.2 601C471.3 601 428.7 601 385.8 601C343 601 300 601 257.2 601C214.3 601 171.7 601 128.8 601C86 601 43 601 21.5 601L0 601Z" fill="#4a47e1"></path><path d="M0 442L21.5 447.5C43 453 86 464 128.8 473.7C171.7 483.3 214.3 491.7 257.2 496.8C300 502 343 504 385.8 488.7C428.7 473.3 471.3 440.7 514.2 422.2C557 403.7 600 399.3 642.8 409.5C685.7 419.7 728.3 444.3 771.2 463C814 481.7 857 494.3 878.5 500.7L900 507L900 601L878.5 601C857 601 814 601 771.2 601C728.3 601 685.7 601 642.8 601C600 601 557 601 514.2 601C471.3 601 428.7 601 385.8 601C343 601 300 601 257.2 601C214.3 601 171.7 601 128.8 601C86 601 43 601 21.5 601L0 601Z" fill="#6120c1"></path></svg>