<svg id="visual" viewBox="0 0 960 540" width="960" height="540" xmlns="http://www.w3.org/2000/svg" xmlns:xlink="http://www.w3.org/1999/xlink" version="1.1"><rect x="0" y="0" width="960" height="540" fill="#001220"></rect><path d="M0 347L22.8 357.2C45.7 367.3 91.3 387.7 137 390.7C182.7 393.7 228.3 379.3 274 378C319.7 376.7 365.3 388.3 411.2 388.8C457 389.3 503 378.7 548.8 376.8C594.7 375 640.3 382 686 388.7C731.7 395.3 777.3 401.7 823 402.2C868.7 402.7 914.3 397.3 937.2 394.7L960 392L960 541L937.2 541C914.3 541 868.7 541 823 541C777.3 541 731.7 541 686 541C640.3 541 594.7 541 548.8 541C503 541 457 541 411.2 541C365.3 541 319.7 541 274 541C228.3 541 182.7 541 137 541C91.3 541 45.7 541 22.8 541L0 541Z" fill="#292a52"></path><path d="M0 391L22.8 395.7C45.7 400.3 91.3 409.7 137 418.3C182.7 427 228.3 435 274 439.2C319.7 443.3 365.3 443.7 411.2 443.2C457 442.7 503 441.3 548.8 433.2C594.7 425 640.3 410 686 399.8C731.7 389.7 777.3 384.3 823 386.7C868.7 389 914.3 399 937.2 404L960 409L960 541L937.2 541C914.3 541 868.7 541 823 541C777.3 541 731.7 541 686 541C640.3 541 594.7 541 548.8 541C503 541 457 541 411.2 541C365.3 541 319.7 541 274 541C228.3 541 182.7 541 137 541C91.3 541 45.7 541 22.8 541L0 541Z" fill="#312e79"></path><path d="M0 420L22.8 426.2C45.7 432.3 91.3 444.7 137 449.2C182.7 453.7 228.3 450.3 274 452.3C319.7 454.3 365.3 461.7 411.2 456.5C457 451.3 503 433.7 548.8 429.7C594.7 425.7 640.3 435.3 686 439.5C731.7 443.7 777.3 442.3 823 444.7C868.7 447 914.3 453 937.2 456L960 459L960 541L937.2 541C914.3 541 868.7 541 823 541C777.3 541 731.7 541 686 541C640.3 541 594.7 541 548.8 541C503 541 457 541 411.2 541C365.3 541 319.7 541 274 541C228.3 541 182.7 541 137 541C91.3 541 45.7 541 22.8 541L0 541Z" fill="#442c9e"></path><path d="M0 485L22.8 482.3C45.7 479.7 91.3 474.3 137 476.3C182.7 478.3 228.3 487.7 274 492.3C319.7 497 365.3 497 411.2 498.2C457 499.3 503 501.7 548.8 496.5C594.7 491.3 640.3 478.7 686 478.8C731.7 479 777.3 492 823 493.7C868.7 495.3 914.3 485.7 937.2 480.8L960 476L960 541L937.2 541C914.3 541 868.7 541 823 541C777.3 541 731.7 541 686 541C640.3 541 594.7 541 548.8 541C503 541 457 541 411.2 541C365.3 541 319.7 541 274 541C228.3 541 182.7 541 137 541C91.3 541 45.7 541 22.8 541L0 541Z" fill="#6120c1"></path></svg>