<svg id="visual" viewBox="0 0 900 600" width="900" height="600" xmlns="http://www.w3.org/2000/svg" xmlns:xlink="http://www.w3.org/1999/xlink" version="1.1"><rect x="0" y="0" width="900" height="600" fill="#001220"></rect><path d="M0 280L21.5 270.7C43 261.3 86 242.7 128.8 234.2C171.7 225.7 214.3 227.3 257.2 244C300 260.7 343 292.3 385.8 303C428.7 313.7 471.3 303.3 514.2 295.8C557 288.3 600 283.7 642.8 281.7C685.7 279.7 728.3 280.3 771.2 281.8C814 283.3 857 285.7 878.5 286.8L900 288L900 601L878.5 601C857 601 814 601 771.2 601C728.3 601 685.7 601 642.8 601C600 601 557 601 514.2 601C471.3 601 428.7 601 385.8 601C343 601 300 601 257.2 601C214.3 601 171.7 601 128.8 601C86 601 43 601 21.5 601L0 601Z" fill="#0066ff"></path><path d="M0 380L21.5 375C43 370 86 360 128.8 346.2C171.7 332.3 214.3 314.7 257.2 321.3C300 328 343 359 385.8 362C428.7 365 471.3 340 514.2 342.2C557 344.3 600 373.7 642.8 372.7C685.7 371.7 728.3 340.3 771.2 324.3C814 308.3 857 307.7 878.5 307.3L900 307L900 601L878.5 601C857 601 814 601 771.2 601C728.3 601 685.7 601 642.8 601C600 601 557 601 514.2 601C471.3 601 428.7 601 385.8 601C343 601 300 601 257.2 601C214.3 601 171.7 601 128.8 601C86 601 43 601 21.5 601L0 601Z" fill="#3d52eb"></path><path d="M0 438L21.5 438.5C43 439 86 440 128.8 438.3C171.7 436.7 214.3 432.3 257.2 437C300 441.7 343 455.3 385.8 449.3C428.7 443.3 471.3 417.7 514.2 413.8C557 410 600 428 642.8 429.8C685.7 431.7 728.3 417.3 771.2 420.2C814 423 857 443 878.5 453L900 463L900 601L878.5 601C857 601 814 601 771.2 601C728.3 601 685.7 601 642.8 601C600 601 557 601 514.2 601C471.3 601 428.7 601 385.8 601C343 601 300 601 257.2 601C214.3 601 171.7 601 128.8 601C86 601 43 601 21.5 601L0 601Z" fill="#533cd7"></path><path d="M0 526L21.5 527.8C43 529.7 86 533.3 128.8 523.8C171.7 514.3 214.3 491.7 257.2 487.2C300 482.7 343 496.3 385.8 504.5C428.7 512.7 471.3 515.3 514.2 514.8C557 514.3 600 510.7 642.8 510C685.7 509.3 728.3 511.7 771.2 506.5C814 501.3 857 488.7 878.5 482.3L900 476L900 601L878.5 601C857 601 814 601 771.2 601C728.3 601 685.7 601 642.8 601C600 601 557 601 514.2 601C471.3 601 428.7 601 385.8 601C343 601 300 601 257.2 601C214.3 601 171.7 601 128.8 601C86 601 43 601 21.5 601L0 601Z" fill="#6120c1"></path></svg>