<svg id="visual" viewBox="0 0 900 600" width="900" height="600" xmlns="http://www.w3.org/2000/svg" xmlns:xlink="http://www.w3.org/1999/xlink" version="1.1"><path d="M710 600L684.5 590C659 580 608 560 584 540C560 520 563 500 599 480C635 460 704 440 692 420C680 400 587 380 581 360C575 340 656 320 675.5 300C695 280 653 260 620 240C587 220 563 200 585.5 180C608 160 677 140 693.5 120C710 100 674 80 660.5 60C647 40 656 20 660.5 10L665 0L900 0L900 10C900 20 900 40 900 60C900 80 900 100 900 120C900 140 900 160 900 180C900 200 900 220 900 240C900 260 900 280 900 300C900 320 900 340 900 360C900 380 900 400 900 420C900 440 900 460 900 480C900 500 900 520 900 540C900 560 900 580 900 590L900 600Z" fill="#001220"></path><path d="M647 600L608 590C569 580 491 560 462.5 540C434 520 455 500 491 480C527 460 578 440 563 420C548 400 467 380 473 360C479 340 572 320 594.5 300C617 280 569 260 539 240C509 220 497 200 513.5 180C530 160 575 140 576.5 120C578 100 536 80 519.5 60C503 40 512 20 516.5 10L521 0L666 0L661.5 10C657 20 648 40 661.5 60C675 80 711 100 694.5 120C678 140 609 160 586.5 180C564 200 588 220 621 240C654 260 696 280 676.5 300C657 320 576 340 582 360C588 380 681 400 693 420C705 440 636 460 600 480C564 500 561 520 585 540C609 560 660 580 685.5 590L711 600Z" fill="#00408b"></path><path d="M494 600L476 590C458 580 422 560 387.5 540C353 520 320 500 341 480C362 460 437 440 434 420C431 400 350 380 368 360C386 340 503 320 522.5 300C542 280 464 260 413 240C362 220 338 200 356 180C374 160 434 140 456.5 120C479 100 464 80 447.5 60C431 40 413 20 404 10L395 0L522 0L517.5 10C513 20 504 40 520.5 60C537 80 579 100 577.5 120C576 140 531 160 514.5 180C498 200 510 220 540 240C570 260 618 280 595.5 300C573 320 480 340 474 360C468 380 549 400 564 420C579 440 528 460 492 480C456 500 435 520 463.5 540C492 560 570 580 609 590L648 600Z" fill="#0066ff"></path><path d="M377 600L360.5 590C344 580 311 560 275 540C239 520 200 500 210.5 480C221 460 281 440 291.5 420C302 400 263 380 272 360C281 340 338 320 336.5 300C335 280 275 260 234.5 240C194 220 173 200 206 180C239 160 326 140 363.5 120C401 100 389 80 372.5 60C356 40 335 20 324.5 10L314 0L396 0L405 10C414 20 432 40 448.5 60C465 80 480 100 457.5 120C435 140 375 160 357 180C339 200 363 220 414 240C465 260 543 280 523.5 300C504 320 387 340 369 360C351 380 432 400 435 420C438 440 363 460 342 480C321 500 354 520 388.5 540C423 560 459 580 477 590L495 600Z" fill="#0066ff"></path><path d="M305 600L287 590C269 580 233 560 195.5 540C158 520 119 500 120.5 480C122 460 164 440 173 420C182 400 158 380 167 360C176 340 218 320 221 300C224 280 188 260 156.5 240C125 220 98 200 117.5 180C137 160 203 140 239 120C275 100 281 80 282.5 60C284 40 281 20 279.5 10L278 0L315 0L325.5 10C336 20 357 40 373.5 60C390 80 402 100 364.5 120C327 140 240 160 207 180C174 200 195 220 235.5 240C276 260 336 280 337.5 300C339 320 282 340 273 360C264 380 303 400 292.5 420C282 440 222 460 211.5 480C201 500 240 520 276 540C312 560 345 580 361.5 590L378 600Z" fill="#00408b"></path><path d="M0 600L0 590C0 580 0 560 0 540C0 520 0 500 0 480C0 460 0 440 0 420C0 400 0 380 0 360C0 340 0 320 0 300C0 280 0 260 0 240C0 220 0 200 0 180C0 160 0 140 0 120C0 100 0 80 0 60C0 40 0 20 0 10L0 0L279 0L280.5 10C282 20 285 40 283.5 60C282 80 276 100 240 120C204 140 138 160 118.5 180C99 200 126 220 157.5 240C189 260 225 280 222 300C219 320 177 340 168 360C159 380 183 400 174 420C165 440 123 460 121.5 480C120 500 159 520 196.5 540C234 560 270 580 288 590L306 600Z" fill="#001220"></path></svg>