<svg id="visual" viewBox="0 0 900 600" width="900" height="600" xmlns="http://www.w3.org/2000/svg" xmlns:xlink="http://www.w3.org/1999/xlink" version="1.1"><rect x="0" y="0" width="900" height="600" fill="#001220"></rect><defs><linearGradient id="grad1_0" x1="33.3%" y1="0%" x2="100%" y2="100%"><stop offset="20%" stop-color="#6120c1" stop-opacity="1"></stop><stop offset="80%" stop-color="#6120c1" stop-opacity="1"></stop></linearGradient></defs><defs><linearGradient id="grad1_1" x1="33.3%" y1="0%" x2="100%" y2="100%"><stop offset="20%" stop-color="#6120c1" stop-opacity="1"></stop><stop offset="80%" stop-color="#002c78" stop-opacity="1"></stop></linearGradient></defs><defs><linearGradient id="grad1_2" x1="33.3%" y1="0%" x2="100%" y2="100%"><stop offset="20%" stop-color="#001220" stop-opacity="1"></stop><stop offset="80%" stop-color="#002c78" stop-opacity="1"></stop></linearGradient></defs><defs><linearGradient id="grad2_0" x1="0%" y1="0%" x2="66.7%" y2="100%"><stop offset="20%" stop-color="#6120c1" stop-opacity="1"></stop><stop offset="80%" stop-color="#6120c1" stop-opacity="1"></stop></linearGradient></defs><defs><linearGradient id="grad2_1" x1="0%" y1="0%" x2="66.7%" y2="100%"><stop offset="20%" stop-color="#002c78" stop-opacity="1"></stop><stop offset="80%" stop-color="#6120c1" stop-opacity="1"></stop></linearGradient></defs><defs><linearGradient id="grad2_2" x1="0%" y1="0%" x2="66.7%" y2="100%"><stop offset="20%" stop-color="#002c78" stop-opacity="1"></stop><stop offset="80%" stop-color="#001220" stop-opacity="1"></stop></linearGradient></defs><g transform="translate(900, 0)"><path d="M0 351.5C-35.2 340.9 -70.5 330.2 -101.7 312.9C-132.9 295.6 -160 271.7 -178.7 245.9C-197.4 220.2 -207.6 192.6 -236.2 171.6C-264.9 150.6 -312 136.1 -334.3 108.6C-356.6 81.1 -354.1 40.6 -351.5 0L0 0Z" fill="#00214b"></path><path d="M0 234.4C-23.5 227.2 -47 220.1 -67.8 208.6C-88.6 197.1 -106.7 181.1 -119.1 164C-131.6 146.8 -138.4 128.4 -157.5 114.4C-176.6 100.4 -208 90.8 -222.9 72.4C-237.8 54.1 -236.1 27 -234.4 0L0 0Z" fill="#052fa1"></path><path d="M0 117.2C-11.7 113.6 -23.5 110.1 -33.9 104.3C-44.3 98.5 -53.3 90.6 -59.6 82C-65.8 73.4 -69.2 64.2 -78.7 57.2C-88.3 50.2 -104 45.4 -111.4 36.2C-118.9 27 -118 13.5 -117.2 0L0 0Z" fill="#6120c1"></path></g><g transform="translate(0, 600)"><path d="M0 -351.5C30.1 -329 60.2 -306.5 97.3 -299.6C134.5 -292.7 178.7 -301.3 206.6 -284.4C234.6 -267.5 246.4 -224.9 263.7 -191.6C281.1 -158.3 304 -134.2 319.6 -103.8C335.1 -73.4 343.3 -36.7 351.5 0L0 0Z" fill="#00214b"></path><path d="M0 -234.4C20.1 -219.3 40.1 -204.3 64.9 -199.7C89.7 -195.1 119.1 -200.9 137.8 -189.6C156.4 -178.3 164.3 -150 175.8 -127.7C187.4 -105.5 202.7 -89.5 213 -69.2C223.4 -49 228.9 -24.5 234.4 0L0 0Z" fill="#052fa1"></path><path d="M0 -117.2C10 -109.7 20.1 -102.2 32.4 -99.9C44.8 -97.6 59.6 -100.4 68.9 -94.8C78.2 -89.2 82.1 -75 87.9 -63.9C93.7 -52.8 101.3 -44.7 106.5 -34.6C111.7 -24.5 114.4 -12.2 117.2 0L0 0Z" fill="#6120c1"></path></g></svg>