<svg id="visual" viewBox="0 0 900 600" width="900" height="600" xmlns="http://www.w3.org/2000/svg" xmlns:xlink="http://www.w3.org/1999/xlink" version="1.1"><path d="M719 600L717.5 590.8C716 581.7 713 563.3 719 545.2C725 527 740 509 747.5 490.8C755 472.7 755 454.3 759.5 436.2C764 418 773 400 768.5 381.8C764 363.7 746 345.3 738.5 327.2C731 309 734 291 720.5 272.8C707 254.7 677 236.3 657.5 218.2C638 200 629 182 639.5 163.8C650 145.7 680 127.3 699.5 109.2C719 91 728 73 738.5 54.8C749 36.7 761 18.3 767 9.2L773 0L900 0L900 9.2C900 18.3 900 36.7 900 54.8C900 73 900 91 900 109.2C900 127.3 900 145.7 900 163.8C900 182 900 200 900 218.2C900 236.3 900 254.7 900 272.8C900 291 900 309 900 327.2C900 345.3 900 363.7 900 381.8C900 400 900 418 900 436.2C900 454.3 900 472.7 900 490.8C900 509 900 527 900 545.2C900 563.3 900 581.7 900 590.8L900 600Z" fill="#6120c1"></path><path d="M647 600L639.5 590.8C632 581.7 617 563.3 617 545.2C617 527 632 509 642.5 490.8C653 472.7 659 454.3 665 436.2C671 418 677 400 677 381.8C677 363.7 671 345.3 666.5 327.2C662 309 659 291 642.5 272.8C626 254.7 596 236.3 575 218.2C554 200 542 182 549.5 163.8C557 145.7 584 127.3 606.5 109.2C629 91 647 73 654.5 54.8C662 36.7 659 18.3 657.5 9.2L656 0L774 0L768 9.2C762 18.3 750 36.7 739.5 54.8C729 73 720 91 700.5 109.2C681 127.3 651 145.7 640.5 163.8C630 182 639 200 658.5 218.2C678 236.3 708 254.7 721.5 272.8C735 291 732 309 739.5 327.2C747 345.3 765 363.7 769.5 381.8C774 400 765 418 760.5 436.2C756 454.3 756 472.7 748.5 490.8C741 509 726 527 720 545.2C714 563.3 717 581.7 718.5 590.8L720 600Z" fill="#3d2cab"></path><path d="M386 600L381.5 590.8C377 581.7 368 563.3 366.5 545.2C365 527 371 509 380 490.8C389 472.7 401 454.3 399.5 436.2C398 418 383 400 378.5 381.8C374 363.7 380 345.3 383 327.2C386 309 386 291 368 272.8C350 254.7 314 236.3 320 218.2C326 200 374 182 404 163.8C434 145.7 446 127.3 450.5 109.2C455 91 452 73 432.5 54.8C413 36.7 377 18.3 359 9.2L341 0L657 0L658.5 9.2C660 18.3 663 36.7 655.5 54.8C648 73 630 91 607.5 109.2C585 127.3 558 145.7 550.5 163.8C543 182 555 200 576 218.2C597 236.3 627 254.7 643.5 272.8C660 291 663 309 667.5 327.2C672 345.3 678 363.7 678 381.8C678 400 672 418 666 436.2C660 454.3 654 472.7 643.5 490.8C633 509 618 527 618 545.2C618 563.3 633 581.7 640.5 590.8L648 600Z" fill="#1c2e93"></path><path d="M269 600L267.5 590.8C266 581.7 263 563.3 257 545.2C251 527 242 509 242 490.8C242 472.7 251 454.3 255.5 436.2C260 418 260 400 272 381.8C284 363.7 308 345.3 317 327.2C326 309 320 291 297.5 272.8C275 254.7 236 236.3 228.5 218.2C221 200 245 182 266 163.8C287 145.7 305 127.3 309.5 109.2C314 91 305 73 284 54.8C263 36.7 230 18.3 213.5 9.2L197 0L342 0L360 9.2C378 18.3 414 36.7 433.5 54.8C453 73 456 91 451.5 109.2C447 127.3 435 145.7 405 163.8C375 182 327 200 321 218.2C315 236.3 351 254.7 369 272.8C387 291 387 309 384 327.2C381 345.3 375 363.7 379.5 381.8C384 400 399 418 400.5 436.2C402 454.3 390 472.7 381 490.8C372 509 366 527 367.5 545.2C369 563.3 378 581.7 382.5 590.8L387 600Z" fill="#002c78"></path><path d="M188 600L179 590.8C170 581.7 152 563.3 137 545.2C122 527 110 509 111.5 490.8C113 472.7 128 454.3 143 436.2C158 418 173 400 182 381.8C191 363.7 194 345.3 189.5 327.2C185 309 173 291 161 272.8C149 254.7 137 236.3 134 218.2C131 200 137 182 149 163.8C161 145.7 179 127.3 170 109.2C161 91 125 73 114.5 54.8C104 36.7 119 18.3 126.5 9.2L134 0L198 0L214.5 9.2C231 18.3 264 36.7 285 54.8C306 73 315 91 310.5 109.2C306 127.3 288 145.7 267 163.8C246 182 222 200 229.5 218.2C237 236.3 276 254.7 298.5 272.8C321 291 327 309 318 327.2C309 345.3 285 363.7 273 381.8C261 400 261 418 256.5 436.2C252 454.3 243 472.7 243 490.8C243 509 252 527 258 545.2C264 563.3 267 581.7 268.5 590.8L270 600Z" fill="#00265b"></path><path d="M89 600L90.5 590.8C92 581.7 95 563.3 90.5 545.2C86 527 74 509 72.5 490.8C71 472.7 80 454.3 86 436.2C92 418 95 400 96.5 381.8C98 363.7 98 345.3 93.5 327.2C89 309 80 291 71 272.8C62 254.7 53 236.3 53 218.2C53 200 62 182 72.5 163.8C83 145.7 95 127.3 90.5 109.2C86 91 65 73 56 54.8C47 36.7 50 18.3 51.5 9.2L53 0L135 0L127.5 9.2C120 18.3 105 36.7 115.5 54.8C126 73 162 91 171 109.2C180 127.3 162 145.7 150 163.8C138 182 132 200 135 218.2C138 236.3 150 254.7 162 272.8C174 291 186 309 190.5 327.2C195 345.3 192 363.7 183 381.8C174 400 159 418 144 436.2C129 454.3 114 472.7 112.5 490.8C111 509 123 527 138 545.2C153 563.3 171 581.7 180 590.8L189 600Z" fill="#001d3d"></path><path d="M0 600L0 590.8C0 581.7 0 563.3 0 545.2C0 527 0 509 0 490.8C0 472.7 0 454.3 0 436.2C0 418 0 400 0 381.8C0 363.7 0 345.3 0 327.2C0 309 0 291 0 272.8C0 254.7 0 236.3 0 218.2C0 200 0 182 0 163.8C0 145.7 0 127.3 0 109.2C0 91 0 73 0 54.8C0 36.7 0 18.3 0 9.2L0 0L54 0L52.5 9.2C51 18.3 48 36.7 57 54.8C66 73 87 91 91.5 109.2C96 127.3 84 145.7 73.5 163.8C63 182 54 200 54 218.2C54 236.3 63 254.7 72 272.8C81 291 90 309 94.5 327.2C99 345.3 99 363.7 97.5 381.8C96 400 93 418 87 436.2C81 454.3 72 472.7 73.5 490.8C75 509 87 527 91.5 545.2C96 563.3 93 581.7 91.5 590.8L90 600Z" fill="#001220"></path></svg>