<svg id="visual" viewBox="0 0 900 600" width="900" height="600" xmlns="http://www.w3.org/2000/svg" xmlns:xlink="http://www.w3.org/1999/xlink" version="1.1"><path d="M0 79L13.7 80C27.3 81 54.7 83 82 91C109.3 99 136.7 113 163.8 130C191 147 218 167 245.2 167C272.3 167 299.7 147 327 137C354.3 127 381.7 127 409 143C436.3 159 463.7 191 491 206C518.3 221 545.7 219 573 216C600.3 213 627.7 209 654.8 199C682 189 709 173 736.2 166C763.3 159 790.7 161 818 155C845.3 149 872.7 135 886.3 128L900 121L900 0L886.3 0C872.7 0 845.3 0 818 0C790.7 0 763.3 0 736.2 0C709 0 682 0 654.8 0C627.7 0 600.3 0 573 0C545.7 0 518.3 0 491 0C463.7 0 436.3 0 409 0C381.7 0 354.3 0 327 0C299.7 0 272.3 0 245.2 0C218 0 191 0 163.8 0C136.7 0 109.3 0 82 0C54.7 0 27.3 0 13.7 0L0 0Z" fill="#001220"></path><path d="M0 121L13.7 130C27.3 139 54.7 157 82 171C109.3 185 136.7 195 163.8 206C191 217 218 229 245.2 226C272.3 223 299.7 205 327 201C354.3 197 381.7 207 409 222C436.3 237 463.7 257 491 267C518.3 277 545.7 277 573 271C600.3 265 627.7 253 654.8 240C682 227 709 213 736.2 212C763.3 211 790.7 223 818 220C845.3 217 872.7 199 886.3 190L900 181L900 119L886.3 126C872.7 133 845.3 147 818 153C790.7 159 763.3 157 736.2 164C709 171 682 187 654.8 197C627.7 207 600.3 211 573 214C545.7 217 518.3 219 491 204C463.7 189 436.3 157 409 141C381.7 125 354.3 125 327 135C299.7 145 272.3 165 245.2 165C218 165 191 145 163.8 128C136.7 111 109.3 97 82 89C54.7 81 27.3 79 13.7 78L0 77Z" fill="#002a6a"></path><path d="M0 175L13.7 182C27.3 189 54.7 203 82 213C109.3 223 136.7 229 163.8 248C191 267 218 299 245.2 301C272.3 303 299.7 275 327 266C354.3 257 381.7 267 409 278C436.3 289 463.7 301 491 315C518.3 329 545.7 345 573 339C600.3 333 627.7 305 654.8 293C682 281 709 285 736.2 283C763.3 281 790.7 273 818 267C845.3 261 872.7 257 886.3 255L900 253L900 179L886.3 188C872.7 197 845.3 215 818 218C790.7 221 763.3 209 736.2 210C709 211 682 225 654.8 238C627.7 251 600.3 263 573 269C545.7 275 518.3 275 491 265C463.7 255 436.3 235 409 220C381.7 205 354.3 195 327 199C299.7 203 272.3 221 245.2 224C218 227 191 215 163.8 204C136.7 193 109.3 183 82 169C54.7 155 27.3 137 13.7 128L0 119Z" fill="#3d2cab"></path><path d="M0 217L13.7 221C27.3 225 54.7 233 82 244C109.3 255 136.7 269 163.8 290C191 311 218 339 245.2 338C272.3 337 299.7 307 327 300C354.3 293 381.7 309 409 325C436.3 341 463.7 357 491 371C518.3 385 545.7 397 573 385C600.3 373 627.7 337 654.8 323C682 309 709 317 736.2 323C763.3 329 790.7 333 818 331C845.3 329 872.7 321 886.3 317L900 313L900 251L886.3 253C872.7 255 845.3 259 818 265C790.7 271 763.3 279 736.2 281C709 283 682 279 654.8 291C627.7 303 600.3 331 573 337C545.7 343 518.3 327 491 313C463.7 299 436.3 287 409 276C381.7 265 354.3 255 327 264C299.7 273 272.3 301 245.2 299C218 297 191 265 163.8 246C136.7 227 109.3 221 82 211C54.7 201 27.3 187 13.7 180L0 173Z" fill="#6120c1"></path><path d="M0 367L13.7 361C27.3 355 54.7 343 82 345C109.3 347 136.7 363 163.8 386C191 409 218 439 245.2 433C272.3 427 299.7 385 327 377C354.3 369 381.7 395 409 413C436.3 431 463.7 441 491 447C518.3 453 545.7 455 573 451C600.3 447 627.7 437 654.8 425C682 413 709 399 736.2 405C763.3 411 790.7 437 818 440C845.3 443 872.7 423 886.3 413L900 403L900 311L886.3 315C872.7 319 845.3 327 818 329C790.7 331 763.3 327 736.2 321C709 315 682 307 654.8 321C627.7 335 600.3 371 573 383C545.7 395 518.3 383 491 369C463.7 355 436.3 339 409 323C381.7 307 354.3 291 327 298C299.7 305 272.3 335 245.2 336C218 337 191 309 163.8 288C136.7 267 109.3 253 82 242C54.7 231 27.3 223 13.7 219L0 215Z" fill="#3d2cab"></path><path d="M0 571L13.7 567C27.3 563 54.7 555 82 551C109.3 547 136.7 547 163.8 552C191 557 218 567 245.2 565C272.3 563 299.7 549 327 545C354.3 541 381.7 547 409 553C436.3 559 463.7 565 491 563C518.3 561 545.7 551 573 549C600.3 547 627.7 553 654.8 556C682 559 709 559 736.2 561C763.3 563 790.7 567 818 565C845.3 563 872.7 555 886.3 551L900 547L900 401L886.3 411C872.7 421 845.3 441 818 438C790.7 435 763.3 409 736.2 403C709 397 682 411 654.8 423C627.7 435 600.3 445 573 449C545.7 453 518.3 451 491 445C463.7 439 436.3 429 409 411C381.7 393 354.3 367 327 375C299.7 383 272.3 425 245.2 431C218 437 191 407 163.8 384C136.7 361 109.3 345 82 343C54.7 341 27.3 353 13.7 359L0 365Z" fill="#002a6a"></path><path d="M0 601L13.7 601C27.3 601 54.7 601 82 601C109.3 601 136.7 601 163.8 601C191 601 218 601 245.2 601C272.3 601 299.7 601 327 601C354.3 601 381.7 601 409 601C436.3 601 463.7 601 491 601C518.3 601 545.7 601 573 601C600.3 601 627.7 601 654.8 601C682 601 709 601 736.2 601C763.3 601 790.7 601 818 601C845.3 601 872.7 601 886.3 601L900 601L900 545L886.3 549C872.7 553 845.3 561 818 563C790.7 565 763.3 561 736.2 559C709 557 682 557 654.8 554C627.7 551 600.3 545 573 547C545.7 549 518.3 559 491 561C463.7 563 436.3 557 409 551C381.7 545 354.3 539 327 543C299.7 547 272.3 561 245.2 563C218 565 191 555 163.8 550C136.7 545 109.3 545 82 549C54.7 553 27.3 561 13.7 565L0 569Z" fill="#001220"></path></svg>